<?xml version="1.0" standalone="no"?>
<!DOCTYPE svg PUBLIC "-//W3C//DTD SVG 20010904//EN"
 "http://www.w3.org/TR/2001/REC-SVG-20010904/DTD/svg10.dtd">
<svg version="1.0" xmlns="http://www.w3.org/2000/svg"
 width="980.000000pt" height="980.000000pt" viewBox="0 0 980.000000 980.000000"
 preserveAspectRatio="xMidYMid meet">
<metadata>
Created by potrace 1.11, written by Peter Selinger 2001-2013
</metadata>
<g transform="translate(0.000000,980.000000) scale(0.100000,-0.100000)"
fill="#000000" stroke="none">
<path d="M3638 9790 c-160 -19 -225 -120 -235 -365 -11 -273 51 -391 229 -441
l58 -17 0 -1340 0 -1341 -754 -1770 c-1362 -3196 -1383 -3249 -1415 -3416 -39
-211 -8 -425 90 -608 114 -213 280 -349 531 -433 74 -25 119 -33 233 -41 215
-14 4011 -22 4626 -9 566 12 580 13 744 82 149 62 310 189 393 310 158 232
200 528 116 816 -34 116 -230 583 -1520 3609 l-614 1440 0 1351 0 1351 69 21
c54 17 79 31 115 66 69 69 88 131 94 297 5 161 -11 253 -59 336 -40 70 -80 88
-225 102 -128 12 -2372 12 -2476 0z m1912 -2225 l0 -1405 519 -1218 c948
-2224 1394 -3278 1604 -3792 50 -121 51 -128 52 -225 0 -89 -3 -106 -28 -157
-33 -67 -90 -121 -163 -155 -50 -23 -69 -25 -351 -35 -407 -16 -4157 -16
-4565 0 -291 11 -298 12 -354 38 -122 57 -184 154 -192 294 -6 127 -107 -121
1188 2920 507 1191 937 2201 956 2244 l34 80 0 1408 0 1408 650 0 650 0 0
-1405z"/>
<path d="M3870 4300 c-63 -4 -116 -8 -118 -9 -19 -8 -954 -2214 -1296 -3058
-75 -185 -107 -276 -109 -310 -2 -47 -1 -49 36 -67 36 -17 100 -19 1278 -28
1547 -12 3691 2 3754 25 67 24 63 50 -54 343 -259 648 -1192 2858 -1282 3035
-17 35 -37 59 -51 64 -30 10 -2006 15 -2158 5z m1177 -871 c68 -23 154 -80
199 -133 114 -130 138 -331 57 -491 -55 -110 -157 -197 -268 -230 -75 -21
-199 -19 -276 5 -276 85 -397 424 -239 668 68 107 195 187 325 205 49 7 145
-4 202 -24z m-1051 -975 c68 -35 137 -107 172 -182 23 -49 27 -70 27 -147 -1
-77 -5 -98 -28 -147 -34 -69 -94 -131 -162 -166 -41 -21 -67 -27 -145 -30
-125 -5 -187 17 -266 93 -61 60 -91 118 -104 203 -46 286 250 506 506 376z
m1151 -408 c44 -22 129 -118 143 -160 16 -50 8 -140 -18 -198 -92 -208 -415
-193 -487 22 -47 142 22 293 157 342 60 21 158 19 205 -6z"/>
</g>
</svg>
